<?xml version="1.0" encoding="utf-8"?>
<!-- Generator: Adobe Illustrator 22.1.0, SVG Export Plug-In . SVG Version: 6.00 Build 0)  -->
<svg version="1.1" id="Layer_1" xmlns="http://www.w3.org/2000/svg" xmlns:xlink="http://www.w3.org/1999/xlink" x="0px" y="0px"
	 viewBox="0 0 393 60" style="enable-background:new 0 0 393 60;" xml:space="preserve">
<style type="text/css">
	.st0{fill:#0A0A0A;}
</style>
<title>logo-wordmark</title>
<desc>Created with Sketch.</desc>
<g id="logo-wordmark">
	<g id="Shape" transform="translate(0.625000, 0.000000)">
		<path class="st0" d="M94,48.4l-8.6-17.3h-9.7v17.3h-9.6v-48h22.4c9.1,0,16.5,5,16.5,15.2c0,7.2-3.1,11.7-9.2,14.1l9.2,18.7H94z
			 M88.3,9.6H75.7V22h12.6c4.5,0,6.9-2.1,6.9-6.2C95.1,11.4,92.5,9.6,88.3,9.6z"/>
		<polygon class="st0" points="127.9,48.4 127.9,0.4 137.5,0.4 137.5,48.4 		"/>
		<path class="st0" d="M182.4,44.2c0,0-10-22.6-10.7-24.4c0,1.9,0.1,28.2,0.1,28.2h-9.4V0h11c0,0,11.4,27.2,12.1,28.9
			C186.2,27.1,197.6,0,197.6,0h10.7v48h-9.6c0,0,0.1-26.4,0.1-28.2c-0.7,1.8-10.7,24.4-10.7,24.4H182.4z"/>
		<path class="st0" d="M262.2,48.4l-3.8-10.7h-17.6L237,48.4h-10.3l18.4-48h9.3l18.3,48H262.2z M252.1,19.8c-1-2.8-1.9-5.7-2.4-7.5
			c-0.5,1.8-1.4,4.7-2.4,7.5l-3.1,8.7h11L252.1,19.8z"/>
		<path class="st0" d="M319.7,48.4l-8.6-17.3h-9.7v17.3h-9.6v-48h22.4c9.1,0,16.5,5,16.5,15.2c0,7.2-3.1,11.7-9.2,14.1l9.2,18.7
			H319.7z M314,9.6h-12.6V22H314c4.5,0,6.9-2.1,6.9-6.2C320.9,11.4,318.3,9.6,314,9.6z"/>
		<path class="st0" d="M30.5,0.3h-21V22H5.6L0,31.3h9.5v17h9.6v-17h10.6c10,0,17.4-4.7,17.4-15.8C47,5.3,39.5,0.3,30.5,0.3z
			 M30.3,22H19.1V9.6h11c4.3,0,7,1.9,7,6.1S34.7,22,30.3,22z"/>
		<path class="st0" d="M363.3,59.4l9.6-11.1v-19l18.2-29h-10.9l-6.8,11.4c-1.8,3-4.3,7.6-5.2,9.4c-0.9-1.8-3.5-6.5-5.2-9.4
			l-6.8-11.4h-11.1l18.2,29.2V59.4z"/>
	</g>
</g>
</svg>
